<svg width="83.221" height="10.37" viewBox="0 0 83.221 10.37" xmlns="http://www.w3.org/2000/svg"><g id="svgGroup" stroke-linecap="round" fill-rule="evenodd" font-size="9pt" stroke="#000" stroke-width="0.25mm" fill="none" style="stroke:#000;stroke-width:0.25mm;fill:none"><path d="M 0 8.634 L 0 1.743 A 2.226 2.226 0 0 1 0.103 1.056 Q 0.205 0.738 0.379 0.502 Q 0.554 0.267 0.793 0.133 Q 1.032 0 1.299 0 L 4.655 0 Q 4.922 0 5.158 0.133 Q 5.394 0.267 5.571 0.502 A 1.86 1.86 0 0 1 5.852 1.056 Q 5.954 1.374 5.954 1.743 L 5.954 8.634 Q 5.954 8.996 5.852 9.311 Q 5.749 9.625 5.571 9.861 A 1.407 1.407 0 0 1 5.161 10.233 A 0.968 0.968 0 0 1 4.662 10.37 L 1.299 10.37 A 1.004 1.004 0 0 1 0.793 10.233 Q 0.554 10.097 0.379 9.861 A 1.918 1.918 0 0 1 0.103 9.311 Q 0 8.996 0 8.634 Z M 1.627 9.194 L 4.327 9.194 L 4.327 1.169 L 1.627 1.169 L 1.627 9.194 Z" id="0" vector-effect="non-scaling-stroke"/><path d="M 9.734 10.37 L 9.734 1.176 L 8.682 1.176 L 8.682 0.007 L 11.368 0.007 L 11.368 10.37 L 9.734 10.37 Z" id="1" vector-effect="non-scaling-stroke"/><path d="M 14.567 10.37 L 14.567 7.854 Q 14.567 7.595 14.619 7.349 A 2.199 2.199 0 0 1 14.766 6.891 Q 14.861 6.679 14.998 6.521 A 1.083 1.083 0 0 1 15.299 6.275 L 18.731 4.498 L 18.731 1.183 L 16.188 1.183 L 16.188 2.461 L 14.567 2.461 L 14.567 1.743 Q 14.567 1.381 14.67 1.066 A 1.918 1.918 0 0 1 14.947 0.516 Q 15.121 0.28 15.36 0.144 A 1.004 1.004 0 0 1 15.866 0.007 L 19.059 0.007 A 1.004 1.004 0 0 1 19.565 0.144 Q 19.804 0.28 19.978 0.516 A 1.918 1.918 0 0 1 20.255 1.066 Q 20.358 1.381 20.358 1.743 L 20.358 4.286 Q 20.358 4.833 20.135 5.161 Q 19.913 5.489 19.558 5.674 L 16.188 7.438 L 16.188 9.194 L 20.358 9.194 L 20.358 10.37 L 14.567 10.37 Z" id="2" vector-effect="non-scaling-stroke"/><path d="M 22.976 8.634 L 22.976 8.169 L 24.603 8.169 L 24.603 9.194 L 27.351 9.194 L 27.351 5.975 L 25.04 5.975 L 25.04 4.806 L 27.351 4.806 L 27.351 1.203 L 24.603 1.203 L 24.603 2.495 L 22.976 2.495 L 22.976 1.764 Q 22.976 1.401 23.078 1.087 Q 23.181 0.772 23.358 0.537 Q 23.536 0.301 23.775 0.164 A 1.004 1.004 0 0 1 24.281 0.027 L 27.686 0.027 A 1.004 1.004 0 0 1 28.191 0.164 Q 28.431 0.301 28.608 0.537 Q 28.786 0.772 28.889 1.087 Q 28.991 1.401 28.991 1.764 L 28.991 3.644 A 1.889 1.889 0 0 1 28.913 4.187 A 2.096 2.096 0 0 1 28.697 4.676 Q 28.561 4.901 28.373 5.076 A 1.744 1.744 0 0 1 27.966 5.359 Q 28.185 5.476 28.373 5.65 A 1.925 1.925 0 0 1 28.697 6.043 A 1.98 1.98 0 0 1 28.913 6.521 A 1.878 1.878 0 0 1 28.991 7.068 L 28.991 8.634 Q 28.991 8.996 28.889 9.311 Q 28.786 9.625 28.608 9.861 Q 28.431 10.097 28.191 10.233 A 1.004 1.004 0 0 1 27.686 10.37 L 24.281 10.37 A 1.004 1.004 0 0 1 23.775 10.233 Q 23.536 10.097 23.358 9.861 Q 23.181 9.625 23.078 9.311 Q 22.976 8.996 22.976 8.634 Z" id="3" vector-effect="non-scaling-stroke"/><path d="M 31.589 8.046 L 31.589 6.781 L 33.606 0.007 L 35.28 0.007 L 33.243 6.884 L 35.916 6.884 L 35.916 3.09 L 37.543 2.769 L 37.543 6.884 L 38.691 6.884 L 38.691 8.046 L 37.543 8.046 L 37.543 10.37 L 35.916 10.37 L 35.916 8.046 L 31.589 8.046 Z" id="4" vector-effect="non-scaling-stroke"/><path d="M 41.043 8.634 L 41.043 7.909 L 42.663 7.909 L 42.663 9.194 L 45.377 9.194 L 45.377 5.462 L 41.043 5.462 L 41.043 0.007 L 46.758 0.007 L 46.758 1.251 L 42.663 1.251 L 42.663 4.293 L 45.705 4.293 A 0.968 0.968 0 0 1 46.204 4.43 A 1.389 1.389 0 0 1 46.614 4.806 A 1.908 1.908 0 0 1 46.895 5.363 Q 46.997 5.681 46.997 6.05 L 46.997 8.634 Q 46.997 8.996 46.895 9.311 Q 46.792 9.625 46.614 9.861 A 1.407 1.407 0 0 1 46.204 10.233 A 0.968 0.968 0 0 1 45.705 10.37 L 42.342 10.37 A 1.004 1.004 0 0 1 41.836 10.233 Q 41.597 10.097 41.422 9.861 A 1.918 1.918 0 0 1 41.146 9.311 Q 41.043 8.996 41.043 8.634 Z" id="5" vector-effect="non-scaling-stroke"/><path d="M 49.937 8.634 L 49.937 1.743 Q 49.937 1.381 50.039 1.066 Q 50.142 0.752 50.319 0.516 Q 50.497 0.28 50.736 0.144 A 1.004 1.004 0 0 1 51.242 0.007 L 55.535 0.007 L 55.535 1.183 L 51.564 1.183 L 51.564 4.156 L 54.927 4.156 A 1.017 1.017 0 0 1 55.44 4.293 Q 55.679 4.43 55.86 4.669 A 1.86 1.86 0 0 1 56.144 5.226 Q 56.246 5.544 56.246 5.913 L 56.246 8.634 Q 56.246 8.996 56.144 9.311 Q 56.041 9.625 55.86 9.861 A 1.413 1.413 0 0 1 55.44 10.233 A 1.017 1.017 0 0 1 54.927 10.37 L 51.242 10.37 A 1.004 1.004 0 0 1 50.736 10.233 Q 50.497 10.097 50.319 9.861 Q 50.142 9.625 50.039 9.311 Q 49.937 8.996 49.937 8.634 Z M 51.564 9.194 L 54.606 9.194 L 54.606 5.257 L 51.564 5.257 L 51.564 9.194 Z" id="6" vector-effect="non-scaling-stroke"/><path d="M 61.182 10.37 L 63.855 1.183 L 60.813 1.183 L 60.813 2.898 L 59.281 2.898 L 59.281 0.014 L 65.372 0.014 L 65.372 1.285 L 62.918 10.37 L 61.182 10.37 Z" id="7" vector-effect="non-scaling-stroke"/><path d="M 68.134 8.634 L 68.134 6.48 A 1.957 1.957 0 0 1 68.209 5.934 A 1.948 1.948 0 0 1 68.421 5.452 A 1.885 1.885 0 0 1 68.746 5.055 A 1.69 1.69 0 0 1 69.159 4.771 A 1.643 1.643 0 0 1 68.746 4.484 Q 68.558 4.307 68.421 4.084 Q 68.284 3.862 68.209 3.599 A 1.968 1.968 0 0 1 68.134 3.056 L 68.134 1.75 A 2.18 2.18 0 0 1 68.236 1.077 Q 68.339 0.759 68.52 0.523 Q 68.701 0.287 68.937 0.15 A 0.986 0.986 0 0 1 69.44 0.014 L 72.844 0.014 A 1.004 1.004 0 0 1 73.35 0.15 Q 73.589 0.287 73.767 0.523 A 1.86 1.86 0 0 1 74.047 1.077 A 2.18 2.18 0 0 1 74.149 1.75 L 74.149 3.056 A 1.889 1.889 0 0 1 74.071 3.599 A 2.096 2.096 0 0 1 73.856 4.088 Q 73.719 4.313 73.531 4.488 A 1.744 1.744 0 0 1 73.124 4.771 Q 73.343 4.888 73.531 5.062 A 1.925 1.925 0 0 1 73.856 5.455 A 1.98 1.98 0 0 1 74.071 5.934 A 1.878 1.878 0 0 1 74.149 6.48 L 74.149 8.634 Q 74.149 8.996 74.047 9.311 Q 73.944 9.625 73.767 9.861 Q 73.589 10.097 73.35 10.233 A 1.004 1.004 0 0 1 72.844 10.37 L 69.44 10.37 A 0.986 0.986 0 0 1 68.937 10.233 Q 68.701 10.097 68.52 9.861 Q 68.339 9.625 68.236 9.311 Q 68.134 8.996 68.134 8.634 Z M 69.768 9.194 L 72.509 9.194 L 72.509 5.387 L 69.768 5.387 L 69.768 9.194 Z M 69.768 4.218 L 72.509 4.218 L 72.509 1.183 L 69.768 1.183 L 69.768 4.218 Z" id="8" vector-effect="non-scaling-stroke"/><path d="M 78.149 10.37 L 78.149 9.194 L 81.58 9.194 L 81.58 6.925 L 78.559 6.925 A 1.004 1.004 0 0 1 78.053 6.788 Q 77.814 6.651 77.636 6.416 A 1.86 1.86 0 0 1 77.356 5.862 Q 77.253 5.544 77.253 5.175 L 77.253 1.75 Q 77.253 1.388 77.356 1.073 Q 77.458 0.759 77.636 0.523 Q 77.814 0.287 78.053 0.15 A 1.004 1.004 0 0 1 78.559 0.014 L 81.901 0.014 A 1.017 1.017 0 0 1 82.414 0.15 A 1.413 1.413 0 0 1 82.835 0.523 Q 83.016 0.759 83.118 1.073 Q 83.221 1.388 83.221 1.75 L 83.221 8.634 Q 83.221 8.996 83.118 9.311 Q 83.016 9.625 82.835 9.861 A 1.413 1.413 0 0 1 82.414 10.233 A 1.017 1.017 0 0 1 81.901 10.37 L 78.149 10.37 Z M 78.88 5.811 L 81.58 5.811 L 81.58 1.189 L 78.88 1.189 L 78.88 5.811 Z" id="9" vector-effect="non-scaling-stroke"/></g></svg>
